<svg width="1919" height="393" viewBox="0 0 1919 393" fill="none" xmlns="http://www.w3.org/2000/svg">
<path fill-rule="evenodd" clip-rule="evenodd" d="M0 332.636L46 361.636C91 390.636 183 447.636 274 409.636C366 371.636 457 236.636 549 217.636C640 198.636 731 294.636 823 275.636C914 255.636 1006 121.636 1097 54.6357C1189 -12.3643 1280 -12.3643 1371 25.6357C1463 63.6357 1554 140.636 1646 159.636C1737 179.636 1829 140.636 1874 121.636L1920 102.636V505.636H1874C1829 505.636 1737 505.636 1646 505.636C1554 505.636 1463 505.636 1371 505.636C1280 505.636 1189 505.636 1097 505.636C1006 505.636 914 505.636 823 505.636C731 505.636 640 505.636 549 505.636C457 505.636 366 505.636 274 505.636C183 505.636 91 505.636 46 505.636H0V332.636Z" fill="white"/>
</svg>
