<?xml version="1.0" encoding="iso-8859-1"?>
<!-- Generator: Adobe Illustrator 19.0.0, SVG Export Plug-In . SVG Version: 6.00 Build 0)  -->
<svg version="1.1" id="Layer_1" xmlns="http://www.w3.org/2000/svg" xmlns:xlink="http://www.w3.org/1999/xlink" x="0px" y="0px"
	 viewBox="0 0 512 512" style="enable-background:new 0 0 512 512;" xml:space="preserve">
<g>
	<path style="fill:#EAC591;" d="M158.159,64.903v79.134h32.751V64.903H158.159z M182.198,135.753h-16.146V98.027
		c0-4.458,3.615-8.073,8.073-8.073s8.073,3.615,8.073,8.073L182.198,135.753L182.198,135.753z"/>
	<path style="fill:#EAC591;" d="M316.09,64.903v79.134h32.751V64.903H316.09z M340.538,135.753h-16.146V98.027
		c0-4.458,3.615-8.073,8.073-8.073c4.458,0,8.073,3.615,8.073,8.073L340.538,135.753L340.538,135.753z"/>
	<path style="fill:#EAC591;" d="M190.701,64.903c0.162-0.946,0.308-2.355,0.123-4.032c-0.122-1.114-0.565-3.918-3.127-7.651
		c-2.07-3.017-3.467-3.643-6.582-6.747c-1.668-1.663-4.021-4.227-6.5-7.815h-0.165c-2.478,3.588-4.832,6.153-6.5,7.815
		c-3.115,3.104-4.512,3.729-6.582,6.747c-2.561,3.734-3.003,6.538-3.127,7.651c-0.184,1.677-0.038,3.085,0.123,4.032H190.701z"/>
	<path style="fill:#EAC591;" d="M348.631,64.903c0.162-0.946,0.308-2.355,0.123-4.032c-0.122-1.114-0.565-3.918-3.127-7.651
		c-2.07-3.017-3.467-3.643-6.582-6.747c-1.668-1.663-4.021-4.227-6.5-7.815h-0.165c-2.478,3.588-4.832,6.153-6.5,7.815
		c-3.115,3.104-4.512,3.729-6.582,6.747c-2.561,3.734-3.003,6.538-3.127,7.651c-0.185,1.677-0.038,3.085,0.123,4.032H348.631z"/>
</g>
<path style="fill:#EFD7AB;" d="M462.029,204.489H348.84v-60.452H158.159v60.452H49.97c-3.635,0-6.583,2.946-6.583,6.583v254.081
	H222.26V360.871c0-16.855,13.664-30.519,30.519-30.519l0,0c16.856,0,30.519,13.664,30.519,30.519v104.282h185.312V211.072
	C468.612,207.437,465.665,204.489,462.029,204.489z"/>
<g>
	<path style="fill:#EAC591;" d="M484.665,246.475H27.335c-4.522,0-8.188-3.665-8.188-8.188s3.666-8.188,8.188-8.188h457.331
		c4.523,0,8.188,3.665,8.188,8.188S489.188,246.475,484.665,246.475z"/>
	<path style="fill:#EAC591;" d="M147.97,308.518H50.035c-16.48,0-29.839-13.36-29.839-29.839l0,0H147.97V308.518z"/>
	<path style="fill:#EAC591;" d="M359.029,308.518h102.935c16.48,0,29.839-13.36,29.839-29.839l0,0H359.029V308.518z"/>
	<rect x="147.967" y="144.037" style="fill:#EAC591;" width="42.936" height="321.119"/>
</g>
<g>
	<path style="fill:#E0AC70;" d="M147.97,465.153H73.736v-80.445c0-20.5,16.618-37.117,37.117-37.117l0,0
		c20.5,0,37.117,16.618,37.117,37.117V465.153z"/>
	<path style="fill:#E0AC70;" d="M433.263,465.153h-74.235v-80.445c0-20.5,16.618-37.117,37.117-37.117l0,0
		c20.5,0,37.117,16.618,37.117,37.117V465.153z"/>
</g>
<rect x="316.086" y="144.037" style="fill:#EAC591;" width="42.936" height="321.119"/>
<g>
	<path style="fill:#EDCC8E;" d="M363.19,295.327H148.81c-4.522,0-8.188-3.665-8.188-8.188s3.666-8.188,8.188-8.188h214.382
		c4.523,0,8.188,3.665,8.188,8.188S367.713,295.327,363.19,295.327z"/>
	<path style="fill:#EDCC8E;" d="M232.849,286.867c-4.522,0-8.188-3.665-8.188-8.188v-40.392c0-4.523,3.666-8.188,8.188-8.188
		c4.522,0,8.188,3.665,8.188,8.188v40.392C241.036,283.202,237.37,286.867,232.849,286.867z"/>
	<path style="fill:#EDCC8E;" d="M275.455,286.867c-4.523,0-8.188-3.665-8.188-8.188v-40.392c0-4.523,3.665-8.188,8.188-8.188
		c4.523,0,8.188,3.665,8.188,8.188v40.392C283.643,283.202,279.978,286.867,275.455,286.867z"/>
</g>
<path style="fill:#EFD7AB;" d="M190.701,73.091H158.37c-4.522,0-8.188-3.665-8.188-8.188s3.666-8.188,8.188-8.188h32.331
	c4.522,0,8.188,3.665,8.188,8.188S195.223,73.091,190.701,73.091z"/>
<g>
	<rect x="433.268" y="308.521" style="fill:#EEC68E;" width="35.348" height="156.635"/>
	<rect x="43.388" y="308.521" style="fill:#EEC68E;" width="30.348" height="156.635"/>
</g>
<path style="fill:#EFD7AB;" d="M348.84,73.091H316.09c-4.523,0-8.188-3.665-8.188-8.188s3.665-8.188,8.188-8.188h32.751
	c4.523,0,8.188,3.665,8.188,8.188S353.363,73.091,348.84,73.091z"/>
<g>
	<rect x="147.967" y="390.845" style="fill:#E0AC70;" width="42.936" height="16.375"/>
	<rect x="316.086" y="390.845" style="fill:#E0AC70;" width="42.936" height="16.375"/>
</g>
<path style="fill:#808080;" d="M503.812,473.341H8.188c-4.522,0-8.188-3.665-8.188-8.188s3.666-8.188,8.188-8.188h495.625
	c4.523,0,8.188,3.665,8.188,8.188S508.335,473.341,503.812,473.341z"/>
<g>
	<rect x="147.967" y="308.521" style="fill:#E0AC70;" width="42.936" height="10.325"/>
	<rect x="316.086" y="308.521" style="fill:#E0AC70;" width="42.936" height="10.325"/>
</g>
<g>
	<rect x="190.914" y="152.225" style="fill:#EAC591;" width="125.183" height="9.689"/>
	<path style="fill:#EAC591;" d="M462.029,204.489H49.97c-3.635,0-6.583,2.946-6.583,6.583v3.106h425.224v-3.106
		C468.612,207.437,465.665,204.489,462.029,204.489z"/>
</g>
<g>
	<rect x="147.967" y="152.225" style="fill:#E0AC70;" width="42.827" height="9.689"/>
	<rect x="147.967" y="204.484" style="fill:#E0AC70;" width="42.827" height="9.689"/>
	<rect x="316.152" y="204.484" style="fill:#E0AC70;" width="42.827" height="9.689"/>
	<rect x="147.967" y="230.095" style="fill:#E0AC70;" width="42.827" height="16.375"/>
	<rect x="316.152" y="230.095" style="fill:#E0AC70;" width="42.827" height="16.375"/>
	<rect x="147.967" y="278.675" style="fill:#E0AC70;" width="42.936" height="16.375"/>
	<rect x="316.152" y="278.675" style="fill:#E0AC70;" width="42.881" height="16.375"/>
	<path style="fill:#E0AC70;" d="M147.97,295.054v-16.375H20.196c0,6.049,1.806,11.673,4.898,16.375H147.97z"/>
	<path style="fill:#E0AC70;" d="M486.905,295.054c3.094-4.702,4.898-10.326,4.898-16.375H359.029v16.375H486.905z"/>
	<path style="fill:#E0AC70;" d="M297.326,196.348h-86.948c-2.11,0-3.82-1.711-3.82-3.82v-14.443c0-2.11,1.711-3.82,3.82-3.82h86.948
		c2.11,0,3.82,1.711,3.82,3.82v14.443C301.147,194.637,299.436,196.348,297.326,196.348z"/>
	<path style="fill:#E0AC70;" d="M133.191,339.647H86.914c-1.563,0-2.831-1.267-2.831-2.831v-16.422c0-1.563,1.267-2.831,2.831-2.831
		h46.278c1.563,0,2.831,1.267,2.831,2.831v16.422C136.022,338.379,134.754,339.647,133.191,339.647z"/>
	<path style="fill:#E0AC70;" d="M419.285,339.647h-46.278c-1.563,0-2.831-1.267-2.831-2.831v-16.422
		c0-1.563,1.267-2.831,2.831-2.831h46.278c1.563,0,2.831,1.267,2.831,2.831v16.422C422.116,338.379,420.849,339.647,419.285,339.647
		z"/>
	<rect x="316.152" y="152.225" style="fill:#E0AC70;" width="42.827" height="9.689"/>
</g>
<path style="fill:#EFD7AB;" d="M368.238,152.226H143.856c-4.522,0-8.188-3.665-8.188-8.188c0-4.523,3.666-8.188,8.188-8.188h224.382
	c4.523,0,8.188,3.665,8.188,8.188C376.426,148.561,372.76,152.226,368.238,152.226z"/>
<g>
</g>
<g>
</g>
<g>
</g>
<g>
</g>
<g>
</g>
<g>
</g>
<g>
</g>
<g>
</g>
<g>
</g>
<g>
</g>
<g>
</g>
<g>
</g>
<g>
</g>
<g>
</g>
<g>
</g>
</svg>
