<?xml version="1.0" encoding="iso-8859-1"?>
<!-- Generator: Adobe Illustrator 19.0.0, SVG Export Plug-In . SVG Version: 6.00 Build 0)  -->
<svg version="1.1" id="Layer_1" xmlns="http://www.w3.org/2000/svg" xmlns:xlink="http://www.w3.org/1999/xlink" x="0px" y="0px"
	 viewBox="0 0 512 512" style="enable-background:new 0 0 512 512;" xml:space="preserve">
<g>
	<path style="fill:#BFA083;" d="M256,127.535c-4.328,0-7.837-3.508-7.837-7.837V7.837C248.163,3.508,251.672,0,256,0
		c4.329,0,7.837,3.508,7.837,7.837v111.862C263.837,124.026,260.329,127.535,256,127.535z"/>
	<path style="fill:#BFA083;" d="M273.012,127.04l-15.078-53.415c-1.064-3.768-2.806-3.768-3.869,0l-15.078,53.415
		C238.987,127.04,273.012,127.04,273.012,127.04z"/>
</g>
<path style="fill:#E2C3AA;" d="M300.387,229.829v-27.291c0-1.752-1.06-4.149-2.354-5.329l-7.89-7.19
	c-1.295-1.18-2.354-3.577-2.354-5.329v-19.913c0-1.752-0.893-4.305-1.984-5.675l-4.802-6.024c-1.092-1.37-1.984-3.923-1.984-5.675
	v-23.24c0-1.752-1.433-3.184-3.185-3.184h-39.669c-1.751,0-3.184,1.432-3.184,3.184v23.24c0,1.752-0.893,4.305-1.985,5.675
	l-4.804,6.024c-1.092,1.37-1.985,3.923-1.985,5.675v19.913c0,1.752-1.058,4.149-2.353,5.329l-7.888,7.19
	c-1.295,1.18-2.353,3.577-2.353,5.329v27.291L300.387,229.829L300.387,229.829z"/>
<path style="opacity:0.1;enable-background:new    ;" d="M224.906,229.829v-27.291c0-1.752,1.058-4.149,2.353-5.329l7.888-7.19
	c1.295-1.18,2.353-3.577,2.353-5.329v-19.913c0-1.752,0.893-4.305,1.985-5.675l4.804-6.024c1.091-1.37,1.985-3.923,1.985-5.675
	v-23.24c0-1.752,1.433-3.184,3.184-3.184h-13.293c-1.751,0-3.184,1.432-3.184,3.184v23.24c0,1.752-0.893,4.305-1.985,5.675
	l-4.804,6.024c-1.092,1.37-1.985,3.923-1.985,5.675v19.913c0,1.752-1.058,4.149-2.353,5.329l-7.888,7.19
	c-1.295,1.18-2.353,3.577-2.353,5.329v27.291L224.906,229.829L224.906,229.829z"/>
<path style="fill:#EFD4C2;" d="M300.387,229.829v-27.291c0-1.752-1.06-4.149-2.354-5.329l-7.89-7.19
	c-1.295-1.18-2.354-3.577-2.354-5.329v-19.913c0-1.752-0.893-4.305-1.984-5.675l-4.802-6.024c-1.092-1.37-1.984-3.923-1.984-5.675
	v-23.24c0-1.752-1.433-3.184-3.185-3.184H256v108.846h44.387V229.829z"/>
<path style="fill:#BFA083;" d="M322.992,255.739v-26.167c0-2.919-2.389-5.307-5.307-5.307H194.316c-2.918,0-5.307,2.388-5.307,5.307
	v26.167H322.992z"/>
<g>
	<path style="fill:#84674F;" d="M226.649,255.739c0.184-0.667,0.29-1.366,0.29-2.09v-9.672c0-4.329-3.509-7.837-7.837-7.837
		s-7.837,3.508-7.837,7.837v9.672c0,0.724,0.107,1.423,0.29,2.09H226.649z"/>
	<path style="fill:#84674F;" d="M251.247,255.739c0.184-0.667,0.29-1.366,0.29-2.09v-9.672c0-4.329-3.509-7.837-7.837-7.837
		c-4.328,0-7.837,3.508-7.837,7.837v9.672c0,0.724,0.107,1.423,0.29,2.09H251.247z"/>
	<path style="fill:#84674F;" d="M275.845,255.739c0.185-0.667,0.29-1.366,0.29-2.09v-9.672c0-4.329-3.508-7.837-7.837-7.837
		c-4.329,0-7.837,3.508-7.837,7.837v9.672c0,0.724,0.107,1.423,0.29,2.09H275.845z"/>
	<path style="fill:#84674F;" d="M300.444,255.739c0.185-0.667,0.29-1.366,0.29-2.09v-9.672c0-4.329-3.508-7.837-7.837-7.837
		c-4.329,0-7.837,3.508-7.837,7.837v9.672c0,0.724,0.107,1.423,0.29,2.09H300.444z"/>
</g>
<path style="fill:#E2C3AA;" d="M342.707,284.996v-28.19c0-2.919-2.389-5.307-5.307-5.307H174.601c-2.918,0-5.307,2.388-5.307,5.307
	v28.19H342.707z"/>
<g>
	<path style="fill:#84674F;" d="M202.339,284.996v-10.449c0-4.329-3.509-7.837-7.837-7.837c-4.328,0-7.837,3.508-7.837,7.837v10.449
		H202.339z"/>
	<path style="fill:#84674F;" d="M226.938,284.996v-10.449c0-4.329-3.509-7.837-7.837-7.837s-7.837,3.508-7.837,7.837v10.449H226.938
		z"/>
	<path style="fill:#84674F;" d="M300.735,284.996v-10.449c0-4.329-3.508-7.837-7.837-7.837s-7.837,3.508-7.837,7.837v10.449H300.735
		z"/>
	<path style="fill:#84674F;" d="M276.135,284.996v-10.449c0-4.329-3.508-7.837-7.837-7.837s-7.837,3.508-7.837,7.837v10.449H276.135
		z"/>
	<path style="fill:#84674F;" d="M251.537,284.996v-10.449c0-4.329-3.509-7.837-7.837-7.837c-4.328,0-7.837,3.508-7.837,7.837v10.449
		H251.537z"/>
	<path style="fill:#84674F;" d="M325.334,284.996v-10.449c0-4.329-3.508-7.837-7.837-7.837c-4.329,0-7.837,3.508-7.837,7.837v10.449
		H325.334z"/>
</g>
<path style="fill:#EFD4C2;" d="M363.156,506.693c0,2.919-2.388,5.307-5.307,5.307H154.152c-2.918,0-5.307-2.388-5.307-5.307V286.462
	c0-2.918,2.389-5.306,5.307-5.306h203.698c2.919,0,5.307,2.388,5.307,5.306L363.156,506.693L363.156,506.693z"/>
<g>
	<path style="fill:#BFA083;" d="M202.666,435.65c0.313,0,0.618,0.04,0.916,0.093V301.86c0-4.329-3.509-7.837-7.837-7.837
		c-4.328,0-7.837,3.508-7.837,7.837V435.65L202.666,435.65L202.666,435.65z"/>
	<path style="fill:#BFA083;" d="M309.333,435.65h14.757V301.86c0-4.329-3.509-7.837-7.837-7.837c-4.329,0-7.837,3.508-7.837,7.837
		v133.884C308.715,435.69,309.019,435.65,309.333,435.65z"/>
</g>
<path style="opacity:0.1;enable-background:new    ;" d="M162.643,506.693V286.462c0-2.918,2.388-5.306,5.307-5.306h-13.798
	c-2.918,0-5.307,2.388-5.307,5.306v220.231c0,2.919,2.389,5.307,5.307,5.307h13.798C165.03,512,162.643,509.612,162.643,506.693z"/>
<g>
	<path style="fill:#BFA083;" d="M281.87,294.023c-4.329,0-7.837,3.508-7.837,7.837V512h15.673V301.86
		C289.706,297.531,286.198,294.023,281.87,294.023z"/>
	<path style="fill:#BFA083;" d="M256,294.023c-4.328,0-7.837,3.508-7.837,7.837V512h15.673V301.86
		C263.837,297.531,260.329,294.023,256,294.023z"/>
	<path style="fill:#BFA083;" d="M230.129,294.023c-4.328,0-7.837,3.508-7.837,7.837V512h15.673V301.86
		C237.966,297.531,234.457,294.023,230.129,294.023z"/>
</g>
<path style="fill:#E2C3AA;" d="M195.747,445.842c0,2.919-2.388,5.307-5.307,5.307h-66.396c-2.919,0-5.307-2.388-5.307-5.307v-98.058
	c0-2.918,2.389-5.306,5.307-5.306h66.396c2.918,0,5.307,2.388,5.307,5.306V445.842z"/>
<path style="opacity:0.1;enable-background:new    ;" d="M132.743,445.842v-98.058c0-2.918,2.389-5.306,5.307-5.306h-14.005
	c-2.919,0-5.307,2.388-5.307,5.306v98.06c0,2.919,2.389,5.307,5.307,5.307h14.005C135.13,451.15,132.743,448.762,132.743,445.842z"
	/>
<g>
	<path style="fill:#BFA083;" d="M181.327,342.478v-40.618c0-4.329-3.509-7.837-7.837-7.837s-7.837,3.508-7.837,7.837v40.618
		L181.327,342.478L181.327,342.478z"/>
	<path style="fill:#BFA083;" d="M207.974,506.693c0,2.919-2.389,5.307-5.307,5.307h-90.85c-2.918,0-5.307-2.388-5.307-5.307v-65.736
		c0-2.919,2.388-5.307,5.307-5.307h90.85c2.919,0,5.307,2.388,5.307,5.307V506.693z"/>
</g>
<path style="opacity:0.1;enable-background:new    ;" d="M123.553,506.693v-65.736c0-2.919,2.389-5.307,5.307-5.307h-17.042
	c-2.918,0-5.307,2.388-5.307,5.307v65.736c0,2.919,2.388,5.307,5.307,5.307h17.042C125.941,512,123.553,509.612,123.553,506.693z"/>
<g>
	<path style="fill:#84674F;" d="M146.883,373.246c0,1.752-1.434,3.185-3.185,3.185h-5.027c-1.751,0-3.184-1.433-3.184-3.185v-11.742
		c0-1.751,1.434-3.184,3.184-3.184h5.027c1.751,0,3.185,1.433,3.185,3.184V373.246z"/>
	<path style="fill:#84674F;" d="M162.94,373.246c0,1.752-1.434,3.185-3.184,3.185h-5.027c-1.751,0-3.184-1.433-3.184-3.185v-11.742
		c0-1.751,1.433-3.184,3.184-3.184h5.027c1.751,0,3.184,1.433,3.184,3.184V373.246z"/>
	<path style="fill:#84674F;" d="M178.996,373.246c0,1.752-1.434,3.185-3.184,3.185h-5.026c-1.751,0-3.184-1.433-3.184-3.185v-11.742
		c0-1.751,1.433-3.184,3.184-3.184h5.026c1.751,0,3.184,1.433,3.184,3.184V373.246z"/>
	<path style="fill:#84674F;" d="M146.883,396.683c0,1.752-1.434,3.185-3.185,3.185h-5.027c-1.751,0-3.184-1.433-3.184-3.185V384.94
		c0-1.751,1.434-3.184,3.184-3.184h5.027c1.751,0,3.185,1.433,3.185,3.184V396.683z"/>
	<path style="fill:#84674F;" d="M162.94,396.683c0,1.752-1.434,3.185-3.184,3.185h-5.027c-1.751,0-3.184-1.433-3.184-3.185V384.94
		c0-1.751,1.433-3.184,3.184-3.184h5.027c1.751,0,3.184,1.433,3.184,3.184V396.683z"/>
	<path style="fill:#84674F;" d="M178.996,396.683c0,1.752-1.434,3.185-3.184,3.185h-5.026c-1.751,0-3.184-1.433-3.184-3.185V384.94
		c0-1.751,1.433-3.184,3.184-3.184h5.026c1.751,0,3.184,1.433,3.184,3.184V396.683z"/>
	<path style="fill:#84674F;" d="M146.883,420.118c0,1.752-1.434,3.185-3.185,3.185h-5.027c-1.751,0-3.184-1.433-3.184-3.185v-11.74
		c0-1.752,1.434-3.185,3.184-3.185h5.027c1.751,0,3.185,1.433,3.185,3.185V420.118z"/>
	<path style="fill:#84674F;" d="M162.94,420.118c0,1.752-1.434,3.185-3.184,3.185h-5.027c-1.751,0-3.184-1.433-3.184-3.185v-11.74
		c0-1.752,1.433-3.185,3.184-3.185h5.027c1.751,0,3.184,1.433,3.184,3.185V420.118z"/>
	<path style="fill:#84674F;" d="M178.996,420.118c0,1.752-1.434,3.185-3.184,3.185h-5.026c-1.751,0-3.184-1.433-3.184-3.185v-11.74
		c0-1.752,1.433-3.185,3.184-3.185h5.026c1.751,0,3.184,1.433,3.184,3.185V420.118z"/>
	<path style="fill:#84674F;" d="M138.245,468.591c0,1.751-1.433,3.184-3.184,3.184h-5.027c-1.751,0-3.184-1.433-3.184-3.184v-11.742
		c0-1.752,1.434-3.185,3.184-3.185h5.027c1.751,0,3.184,1.433,3.184,3.185V468.591z"/>
	<path style="fill:#84674F;" d="M154.303,468.591c0,1.751-1.434,3.184-3.184,3.184h-5.027c-1.751,0-3.184-1.433-3.184-3.184v-11.742
		c0-1.752,1.434-3.185,3.184-3.185h5.027c1.751,0,3.184,1.433,3.184,3.185V468.591z"/>
	<path style="fill:#84674F;" d="M170.359,468.591c0,1.751-1.434,3.184-3.184,3.184h-5.026c-1.751,0-3.184-1.433-3.184-3.184v-11.742
		c0-1.752,1.433-3.185,3.184-3.185h5.026c1.751,0,3.184,1.433,3.184,3.185V468.591z"/>
	<path style="fill:#84674F;" d="M138.245,492.028c0,1.752-1.433,3.184-3.184,3.184h-5.027c-1.751,0-3.184-1.431-3.184-3.184v-11.742
		c0-1.752,1.434-3.185,3.184-3.185h5.027c1.751,0,3.184,1.433,3.184,3.185V492.028z"/>
	<path style="fill:#84674F;" d="M154.303,492.028c0,1.752-1.434,3.184-3.184,3.184h-5.027c-1.751,0-3.184-1.431-3.184-3.184v-11.742
		c0-1.752,1.434-3.185,3.184-3.185h5.027c1.751,0,3.184,1.433,3.184,3.185V492.028z"/>
	<path style="fill:#84674F;" d="M170.359,492.028c0,1.752-1.434,3.184-3.184,3.184h-5.026c-1.751,0-3.184-1.431-3.184-3.184v-11.742
		c0-1.752,1.433-3.185,3.184-3.185h5.026c1.751,0,3.184,1.433,3.184,3.185V492.028z"/>
	<path style="fill:#84674F;" d="M187.634,468.591c0,1.751-1.434,3.184-3.184,3.184h-5.027c-1.751,0-3.184-1.433-3.184-3.184v-11.742
		c0-1.752,1.433-3.185,3.184-3.185h5.027c1.751,0,3.184,1.433,3.184,3.185V468.591z"/>
	<path style="fill:#84674F;" d="M187.634,492.028c0,1.752-1.434,3.184-3.184,3.184h-5.027c-1.751,0-3.184-1.431-3.184-3.184v-11.742
		c0-1.752,1.433-3.185,3.184-3.185h5.027c1.751,0,3.184,1.433,3.184,3.185V492.028z"/>
</g>
<path style="fill:#E2C3AA;" d="M393.262,445.842c0,2.919-2.389,5.307-5.307,5.307H321.56c-2.919,0-5.307-2.388-5.307-5.307v-98.058
	c0-2.918,2.388-5.306,5.307-5.306h66.395c2.918,0,5.307,2.388,5.307,5.306V445.842z"/>
<path style="fill:#BFA083;" d="M405.489,506.693c0,2.919-2.388,5.307-5.307,5.307h-90.85c-2.918,0-5.306-2.388-5.306-5.307v-65.736
	c0-2.919,2.388-5.307,5.306-5.307h90.85c2.919,0,5.307,2.388,5.307,5.307V506.693z"/>
<g>
	<path style="fill:#84674F;" d="M344.398,373.246c0,1.752-1.433,3.185-3.185,3.185h-5.026c-1.751,0-3.184-1.433-3.184-3.185v-11.742
		c0-1.751,1.433-3.184,3.184-3.184h5.026c1.752,0,3.185,1.433,3.185,3.184V373.246z"/>
	<path style="fill:#84674F;" d="M360.455,373.246c0,1.752-1.433,3.185-3.184,3.185h-5.028c-1.752,0-3.184-1.433-3.184-3.185v-11.742
		c0-1.751,1.431-3.184,3.184-3.184h5.028c1.751,0,3.184,1.433,3.184,3.184V373.246z"/>
	<path style="fill:#84674F;" d="M376.512,373.246c0,1.752-1.433,3.185-3.185,3.185H368.3c-1.752,0-3.185-1.433-3.185-3.185v-11.742
		c0-1.751,1.433-3.184,3.185-3.184h5.027c1.752,0,3.185,1.433,3.185,3.184V373.246z"/>
	<path style="fill:#84674F;" d="M344.398,396.683c0,1.752-1.433,3.185-3.185,3.185h-5.026c-1.751,0-3.184-1.433-3.184-3.185V384.94
		c0-1.751,1.433-3.184,3.184-3.184h5.026c1.752,0,3.185,1.433,3.185,3.184V396.683z"/>
	<path style="fill:#84674F;" d="M360.455,396.683c0,1.752-1.433,3.185-3.184,3.185h-5.028c-1.752,0-3.184-1.433-3.184-3.185V384.94
		c0-1.751,1.431-3.184,3.184-3.184h5.028c1.751,0,3.184,1.433,3.184,3.184V396.683z"/>
	<path style="fill:#84674F;" d="M376.512,396.683c0,1.752-1.433,3.185-3.185,3.185H368.3c-1.752,0-3.185-1.433-3.185-3.185V384.94
		c0-1.751,1.433-3.184,3.185-3.184h5.027c1.752,0,3.185,1.433,3.185,3.184V396.683z"/>
	<path style="fill:#84674F;" d="M344.398,420.118c0,1.752-1.433,3.185-3.185,3.185h-5.026c-1.751,0-3.184-1.433-3.184-3.185v-11.74
		c0-1.752,1.433-3.185,3.184-3.185h5.026c1.752,0,3.185,1.433,3.185,3.185V420.118z"/>
	<path style="fill:#84674F;" d="M360.455,420.118c0,1.752-1.433,3.185-3.184,3.185h-5.028c-1.752,0-3.184-1.433-3.184-3.185v-11.74
		c0-1.752,1.431-3.185,3.184-3.185h5.028c1.751,0,3.184,1.433,3.184,3.185V420.118z"/>
	<path style="fill:#84674F;" d="M376.512,420.118c0,1.752-1.433,3.185-3.185,3.185H368.3c-1.752,0-3.185-1.433-3.185-3.185v-11.74
		c0-1.752,1.433-3.185,3.185-3.185h5.027c1.752,0,3.185,1.433,3.185,3.185V420.118z"/>
	<path style="fill:#84674F;" d="M335.76,468.591c0,1.751-1.433,3.184-3.185,3.184h-5.026c-1.752,0-3.185-1.433-3.185-3.184v-11.742
		c0-1.752,1.433-3.185,3.185-3.185h5.026c1.752,0,3.185,1.433,3.185,3.185V468.591z"/>
	<path style="fill:#84674F;" d="M351.819,468.591c0,1.751-1.433,3.184-3.185,3.184h-5.029c-1.751,0-3.184-1.433-3.184-3.184v-11.742
		c0-1.752,1.433-3.185,3.184-3.185h5.029c1.752,0,3.185,1.433,3.185,3.185V468.591z"/>
	<path style="fill:#84674F;" d="M367.874,468.591c0,1.751-1.433,3.184-3.184,3.184h-5.026c-1.752,0-3.184-1.433-3.184-3.184v-11.742
		c0-1.752,1.432-3.185,3.184-3.185h5.026c1.751,0,3.184,1.433,3.184,3.185V468.591z"/>
	<path style="fill:#84674F;" d="M335.76,492.028c0,1.752-1.433,3.184-3.185,3.184h-5.026c-1.752,0-3.185-1.431-3.185-3.184v-11.742
		c0-1.752,1.433-3.185,3.185-3.185h5.026c1.752,0,3.185,1.433,3.185,3.185V492.028z"/>
	<path style="fill:#84674F;" d="M351.819,492.028c0,1.752-1.433,3.184-3.185,3.184h-5.029c-1.751,0-3.184-1.431-3.184-3.184v-11.742
		c0-1.752,1.433-3.185,3.184-3.185h5.029c1.752,0,3.185,1.433,3.185,3.185V492.028z"/>
	<path style="fill:#84674F;" d="M367.874,492.028c0,1.752-1.433,3.184-3.184,3.184h-5.026c-1.752,0-3.184-1.431-3.184-3.184v-11.742
		c0-1.752,1.432-3.185,3.184-3.185h5.026c1.751,0,3.184,1.433,3.184,3.185V492.028z"/>
	<path style="fill:#84674F;" d="M385.15,468.591c0,1.751-1.432,3.184-3.184,3.184h-5.027c-1.751,0-3.184-1.433-3.184-3.184v-11.742
		c0-1.752,1.433-3.185,3.184-3.185h5.027c1.752,0,3.184,1.433,3.184,3.185V468.591z"/>
	<path style="fill:#84674F;" d="M385.15,492.028c0,1.752-1.432,3.184-3.184,3.184h-5.027c-1.751,0-3.184-1.431-3.184-3.184v-11.742
		c0-1.752,1.433-3.185,3.184-3.185h5.027c1.752,0,3.184,1.433,3.184,3.185V492.028z"/>
</g>
<path style="fill:#BFA083;" d="M346.346,342.478v-40.618c0-4.329-3.508-7.837-7.837-7.837s-7.837,3.508-7.837,7.837v40.618
	L346.346,342.478L346.346,342.478z"/>
<g>
</g>
<g>
</g>
<g>
</g>
<g>
</g>
<g>
</g>
<g>
</g>
<g>
</g>
<g>
</g>
<g>
</g>
<g>
</g>
<g>
</g>
<g>
</g>
<g>
</g>
<g>
</g>
<g>
</g>
</svg>
